<?xml version="1.0" encoding="UTF-8"?>
<svg xmlns="http://www.w3.org/2000/svg" style="stroke-dasharray:none; shape-rendering:auto; font-family:'Arial'; text-rendering:auto; fill-opacity:1; color-interpolation:auto; color-rendering:auto; font-size:12; fill:black; stroke:black; image-rendering:auto; stroke-miterlimit:10; stroke-linecap:square; stroke-linejoin:miter; font-style:normal; stroke-width:1; stroke-dashoffset:0; font-weight:normal; stroke-opacity:1;" contentScriptType="text/ecmascript" preserveAspectRatio="xMidYMid meet" zoomAndPan="magnify" version="1.0" contentStyleType="text/css" xml:xlink="http://www.w3.org/1999/xlink" width="1141" height="441"><rect x="0" y="12" width="1141" height="221" ry="0" rx="0" style="stroke:#000000; fill:#82B0B7" /><g componentSequence="2"><text x="-122" y="8" transform="rotate(270)" text-anchor="middle" style="font-weight:bold;font-size:10px;stroke:none; fill:#434343"><tspan dy="14" x="-122">Verifica Hierarquia</tspan></text></g><rect x="0" y="232" width="1141" height="209" ry="0" rx="0" style="stroke:#000000; fill:#C9C3AC" /><g componentSequence="1"><text x="-336" y="8" transform="rotate(270)" text-anchor="middle" style="font-weight:bold;font-size:10px;stroke:none; fill:#434343"><tspan dy="14" x="-336">Analista BPO</tspan></text></g><g sequence="1"><ellipse cx="87" cy="128" rx="17" ry="17" stroke-width="1" style="fill:url(#linearGradient66FF6696FF96B6FFB6_561218246);" stroke="336633" /></g><g sequence="41"><rect x="580" y="80" width="106" height="92" ry="5" rx="5" style="fill:url(#linearGradientF8FBFEEDF5FCDEEDFAD4E7F8E2E5E9_800356504);" stroke="191970" /></g><g componentSequence="41"><text x="633" y="95" text-anchor="middle" style="font-weight:bold;font-size:10px;stroke:none; fill:#333399"><tspan dy="14" x="633">Reabertura -</tspan><tspan dy="14" x="633">Correção da</tspan><tspan dy="14" x="633">Solicitação</tspan></text></g><g sequence="42"><ellipse cx="827" cy="37" rx="17" ry="17" stroke-width="1" style="fill:url(#linearGradientFFFF66FFFF96FFFFB6_730589622);" stroke="999900" /></g><g sequence="42"><polygon points=" 813 30 828 30 828 23 843 38 828 53 828 46 813 46" style="stroke:none; fill:#999900" /></g><g sequence="43"><ellipse cx="837" cy="187" rx="17" ry="17" stroke-width="3" style="fill:url(#linearGradientFF6666FF9696FFB6B6_1854501539);" stroke="993333" /></g><g sequence="43"><polygon points=" 828 183 833 178 838 183 843 178 848 183 843 188 848 193 843 198 838 193 833 198 828 193 833 188" style="stroke:none; fill:#993333" /></g><g sequence="44"><polygon points=" 720 90 750 60 780 90 750 120 720 90" style="fill:url(#linearGradientFAFBFCFFFFCC_1397864454);" stroke="000000" /></g><g componentSequence="44"><text x="750" y="130" text-anchor="middle" style="font-weight:bold;font-size:10px;stroke:none; fill:#333399"><tspan dy="14" x="750">Exclusi</tspan><tspan dy="14" x="750">vo</tspan></text></g><g sequence="51"><ellipse cx="547" cy="119" rx="17" ry="17" stroke-width="1" style="fill:url(#linearGradientFFFF66FFFF96FFFFB6_1596815948);" stroke="999900" /></g><g sequence="51"><polygon points=" 533 112 548 112 548 105 563 120 548 135 548 128 533 128" style="stroke:#999900; fill:none" /></g><g sequence="106"><rect x="165" y="308" width="106" height="60" ry="5" rx="5" style="fill:url(#linearGradientF8FBFEEDF5FCDEEDFAD4E7F8E2E5E9_723512902);" stroke="191970" /></g><g componentSequence="106"><text x="218" y="327" text-anchor="middle" style="font-weight:bold;font-size:10px;stroke:none; fill:#333399"><tspan dy="14" x="218">Analista BPO</tspan></text></g><g sequence="107"><ellipse cx="92" cy="335" rx="17" ry="17" stroke-width="1" style="fill:url(#linearGradientFFFF66FFFF96FFFFB6_245796332);" stroke="999900" /></g><g sequence="107"><polygon points=" 78 328 93 328 93 321 108 336 93 351 93 344 78 344" style="stroke:#999900; fill:none" /></g><g sequence="109"><ellipse cx="472" cy="254" rx="17" ry="17" stroke-width="3" style="fill:url(#linearGradientFF6666FF9696FFB6B6_1357485494);" stroke="993333" /></g><g sequence="110"><polygon points=" 305 315 335 285 365 315 335 345 305 315" style="fill:url(#linearGradientFAFBFCFFFFCC_1679977213);" stroke="000000" /></g><g componentSequence="110"><text x="335" y="355" text-anchor="middle" style="font-weight:bold;font-size:10px;stroke:none; fill:#333399"><tspan dy="14" x="335">Aprova</tspan><tspan dy="14" x="335">do</tspan></text></g><g sequence="113"><ellipse cx="472" cy="335" rx="17" ry="17" stroke-width="1" style="fill:url(#linearGradientFFFF66FFFF96FFFFB6_807126497);" stroke="999900" /></g><g sequence="113"><polygon points=" 458 328 473 328 473 321 488 336 473 351 473 344 458 344" style="stroke:none; fill:#999900" /></g><g sequence="119"><ellipse cx="227" cy="127" rx="17" ry="17" stroke-width="1" style="fill:url(#linearGradientFFFF66FFFF96FFFFB6_183039971);" stroke="999900" /></g><g sequence="119"><polygon points=" 213 120 228 120 228 113 243 128 228 143 228 136 213 136" style="stroke:none; fill:#999900" /></g><g sequence="121"><ellipse cx="482" cy="414" rx="17" ry="17" stroke-width="3" style="fill:url(#linearGradientFF6666FF9696FFB6B6_372279085);" stroke="993333" /></g><g sequence="121"><polygon points=" 473 410 478 405 483 410 488 405 493 410 488 415 493 420 488 425 483 420 478 425 473 420 478 415" style="stroke:none; fill:#993333" /></g><rect x="40" y="20" width="105" height="61" ry="5" rx="5" style="stroke:none; fill:#FFFFE0" /><g componentSequence="3"><text x="50" y="43" text-anchor="left" style="font-weight:bold;font-size:10px;stroke:none; fill:#000000"><tspan dy="14" x="50">Início do</tspan><tspan dy="14" x="50">Processo</tspan></text></g><path style="fill:none; stroke-width:1; stroke:#000000;" d="M60.0 20.0 L40.0 20.0 L40.0 81.0 L60.0 81.0" /><rect x="870" y="20" width="105" height="61" ry="5" rx="5" style="stroke:none; fill:#FFFFE0" /><g componentSequence="48"><text x="880" y="43" text-anchor="left" style="font-weight:bold;font-size:10px;stroke:none; fill:#000000"><tspan dy="14" x="880">Reabertura -</tspan><tspan dy="14" x="880">Analista BPO</tspan></text></g><path style="fill:none; stroke-width:1; stroke:#000000;" d="M890.0 20.0 L870.0 20.0 L870.0 81.0 L890.0 81.0" /><rect x="880" y="160" width="105" height="77" ry="5" rx="5" style="stroke:none; fill:#FFFFE0" /><g componentSequence="50"><text x="890" y="183" text-anchor="left" style="font-weight:bold;font-size:10px;stroke:none; fill:#000000"><tspan dy="14" x="890">Chamado</tspan><tspan dy="14" x="890">Cancelado -</tspan><tspan dy="14" x="890">Solicitante</tspan></text></g><path style="fill:none; stroke-width:1; stroke:#000000;" d="M900.0 160.0 L880.0 160.0 L880.0 237.0 L900.0 237.0" /><rect x="545" y="237" width="105" height="61" ry="5" rx="5" style="stroke:none; fill:#FFFFE0" /><g componentSequence="115"><text x="555" y="260" text-anchor="left" style="font-weight:bold;font-size:10px;stroke:none; fill:#000000"><tspan dy="14" x="555">Processo</tspan><tspan dy="14" x="555">Finalizado</tspan></text></g><path style="fill:none; stroke-width:1; stroke:#000000;" d="M565.0 237.0 L545.0 237.0 L545.0 298.0 L565.0 298.0" /><rect x="545" y="308" width="105" height="77" ry="5" rx="5" style="stroke:none; fill:#FFFFE0" /><g componentSequence="117"><text x="555" y="331" text-anchor="left" style="font-weight:bold;font-size:10px;stroke:none; fill:#000000"><tspan dy="14" x="555">Reabertura -</tspan><tspan dy="14" x="555">Correção da</tspan><tspan dy="14" x="555">Solicitação</tspan></text></g><path style="fill:none; stroke-width:1; stroke:#000000;" d="M565.0 308.0 L545.0 308.0 L545.0 385.0 L565.0 385.0" /><rect x="545" y="377" width="105" height="61" ry="5" rx="5" style="stroke:none; fill:#FFFFE0" /><g componentSequence="123"><text x="555" y="400" text-anchor="left" style="font-weight:bold;font-size:10px;stroke:none; fill:#000000"><tspan dy="14" x="555">Processo</tspan><tspan dy="14" x="555">Cancelado</tspan></text></g><path style="fill:none; stroke-width:1; stroke:#000000;" d="M565.0 377.0 L545.0 377.0 L545.0 438.0 L565.0 438.0" /><g componentSequence="45"><text x="713" y="119" style="font-size:10px;font-weight:none;stroke:none; fill:#333399" text-anchor="left" /></g><g componentSequence="46"><text x="781" y="37" style="font-size:10px;font-weight:none;stroke:none; fill:#333399" text-anchor="left" /></g><g componentSequence="47"><text x="789" y="187" style="font-size:10px;font-weight:none;stroke:none; fill:#333399" text-anchor="left" /></g><g componentSequence="52"><text x="582" y="121" style="font-size:10px;font-weight:none;stroke:none; fill:#333399" text-anchor="left" /></g><g componentSequence="108"><text x="147" y="336" style="font-size:10px;font-weight:none;stroke:none; fill:#333399" text-anchor="left" /></g><g componentSequence="111"><text x="298" y="338" style="font-size:10px;font-weight:none;stroke:none; fill:#333399" text-anchor="left" /></g><g componentSequence="112"><text x="394" y="254" style="font-size:10px;font-weight:none;stroke:none; fill:#333399" text-anchor="left" /></g><g componentSequence="114"><text x="420" y="337" style="font-size:10px;font-weight:none;stroke:none; fill:#333399" text-anchor="left" /></g><g componentSequence="120"><text x="167" y="128" style="font-size:10px;font-weight:none;stroke:none; fill:#333399" text-anchor="left" /></g><g componentSequence="122"><text x="402" y="413" style="font-size:10px;font-weight:none;stroke:none; fill:#333399" text-anchor="left" /></g><g componentSequence="4"><text x="99" y="96" style="font-size:10px;font-weight:none;stroke:none; fill:#333399" text-anchor="left" /></g><g componentSequence="49"><text x="867" y="42" style="font-size:10px;font-weight:none;stroke:none; fill:#333399" text-anchor="left" /></g><g componentSequence="63"><text x="877" y="191" style="font-size:10px;font-weight:none;stroke:none; fill:#333399" text-anchor="left" /></g><g componentSequence="116"><text x="527" y="259" style="font-size:10px;font-weight:none;stroke:none; fill:#333399" text-anchor="left" /></g><g componentSequence="118"><text x="527" y="339" style="font-size:10px;font-weight:none;stroke:none; fill:#333399" text-anchor="left" /></g><g componentSequence="124"><text x="532" y="412" style="font-size:10px;font-weight:none;stroke:none; fill:#333399" text-anchor="left" /></g><path style="fill:none; stroke:#000000;stroke-width:1" d="M104.0 128.0 L210.0 127.0" /><polygon style="fill:#000000; stroke:#000000;" points=" 200 122 210 127 200 132 202 127" /><path style="fill:none; stroke:#000000;stroke-dasharray:2" d="M90.0 81.0 L88.0 111.0" /><path style="fill:none; stroke:#000000;stroke-width:1" d="M686.0 120.0 L719.0 117.0" /><polygon style="fill:#000000; stroke:#000000;" points=" 709 113 719 117 709 123 711 118" /><path style="fill:none; stroke:#000000;stroke-width:1" d="M564.0 120.0 L579.0 121.0" /><polygon style="fill:#000000; stroke:#000000;" points=" 569 115 579 121 569 125 571 120" /><path style="fill:none; stroke:#000000;stroke-width:1" d="M753.0 59.0 L755.0 37.0 L809.0 37.0" /><polygon style="fill:#000000; stroke:#000000;" points=" 799 32 809 37 799 42 801 37" /><path style="fill:none; stroke:#000000;stroke-dasharray:2" d="M869.0 43.0 L844.0 39.0" /><path style="fill:none; stroke:#000000;stroke-width:1" d="M757.0 168.0 L759.0 187.0 L819.0 187.0" /><polygon style="fill:#000000; stroke:#000000;" points=" 809 182 819 187 809 192 811 187" /><path style="fill:none; stroke:#000000;stroke-dasharray:2" d="M879.0 192.0 L854.0 189.0" /><path style="fill:none; stroke:#000000;stroke-width:1" d="M271.0 338.0 L304.0 338.0" /><polygon style="fill:#000000; stroke:#000000;" points=" 294 333 304 338 294 343 296 338" /><path style="fill:none; stroke:#000000;stroke-width:1" d="M109.0 335.0 L164.0 336.0" /><polygon style="fill:#000000; stroke:#000000;" points=" 154 331 164 336 154 341 156 336" /><path style="fill:none; stroke:#000000;stroke-width:1" d="M341.0 284.0 L344.0 254.0 L454.0 254.0" /><polygon style="fill:#000000; stroke:#000000;" points=" 444 249 454 254 444 259 446 254" /><path style="fill:none; stroke:#000000;stroke-dasharray:2" d="M544.0 261.0 L489.0 255.0" /><path style="fill:none; stroke:#000000;stroke-width:1" d="M365.0 338.0 L455.0 335.0" /><polygon style="fill:#000000; stroke:#000000;" points=" 445 330 455 335 445 340 447 335" /><path style="fill:none; stroke:#000000;stroke-width:1" d="M339.0 393.0 L340.0 413.0 L465.0 414.0" /><polygon style="fill:#000000; stroke:#000000;" points=" 455 409 465 414 455 419 457 414" /><path style="fill:none; stroke:#000000;stroke-dasharray:2" d="M544.0 341.0 L489.0 336.0" /><path style="fill:none; stroke:#000000;stroke-dasharray:2" d="M544.0 410.0 L499.0 413.0" /><defs><linearGradient xmlns:xlink="http://www.w3.org/1999/xlink" xlink:href="#linearGradient66FF6696FF96B6FFB6" id="linearGradient66FF6696FF96B6FFB6_561218246" x1="0" y1="111.0" x2="0" y2="146.0" gradientUnits="userSpaceOnUse" xlink:type="simple" xlink:actuate="onLoad" xlink:show="other" /><linearGradient id="linearGradient66FF6696FF96B6FFB6"><stop style="stop-color:#66FF66;stop-opacity:1;" offset="0.0" id="stop66FF66" /><stop style="stop-color:#96FF96;stop-opacity:1;" offset="0.5" id="stop96FF96" /><stop style="stop-color:#B6FFB6;stop-opacity:1;" offset="1.0" id="stopB6FFB6" /></linearGradient><linearGradient xmlns:xlink="http://www.w3.org/1999/xlink" xlink:href="#linearGradientF8FBFEEDF5FCDEEDFAD4E7F8E2E5E9" id="linearGradientF8FBFEEDF5FCDEEDFAD4E7F8E2E5E9_800356504" x1="0" y1="80.0" x2="0" y2="186.0" gradientUnits="userSpaceOnUse" xlink:type="simple" xlink:actuate="onLoad" xlink:show="other" /><linearGradient id="linearGradientF8FBFEEDF5FCDEEDFAD4E7F8E2E5E9"><stop style="stop-color:#F8FBFE;stop-opacity:1;" offset="0.0" id="stopF8FBFE" /><stop style="stop-color:#EDF5FC;stop-opacity:1;" offset="0.25" id="stopEDF5FC" /><stop style="stop-color:#DEEDFA;stop-opacity:1;" offset="0.5" id="stopDEEDFA" /><stop style="stop-color:#D4E7F8;stop-opacity:1;" offset="0.75" id="stopD4E7F8" /><stop style="stop-color:#E2E5E9;stop-opacity:1;" offset="1.0" id="stopE2E5E9" /></linearGradient><linearGradient xmlns:xlink="http://www.w3.org/1999/xlink" xlink:href="#linearGradientFFFF66FFFF96FFFFB6" id="linearGradientFFFF66FFFF96FFFFB6_730589622" x1="0" y1="20.0" x2="0" y2="55.0" gradientUnits="userSpaceOnUse" xlink:type="simple" xlink:actuate="onLoad" xlink:show="other" /><linearGradient id="linearGradientFFFF66FFFF96FFFFB6"><stop style="stop-color:#FFFF66;stop-opacity:1;" offset="0.0" id="stopFFFF66" /><stop style="stop-color:#FFFF96;stop-opacity:1;" offset="0.5" id="stopFFFF96" /><stop style="stop-color:#FFFFB6;stop-opacity:1;" offset="1.0" id="stopFFFFB6" /></linearGradient><linearGradient xmlns:xlink="http://www.w3.org/1999/xlink" xlink:href="#linearGradientFF6666FF9696FFB6B6" id="linearGradientFF6666FF9696FFB6B6_1854501539" x1="0" y1="170.0" x2="0" y2="205.0" gradientUnits="userSpaceOnUse" xlink:type="simple" xlink:actuate="onLoad" xlink:show="other" /><linearGradient id="linearGradientFF6666FF9696FFB6B6"><stop style="stop-color:#FF6666;stop-opacity:1;" offset="0.0" id="stopFF6666" /><stop style="stop-color:#FF9696;stop-opacity:1;" offset="0.5" id="stopFF9696" /><stop style="stop-color:#FFB6B6;stop-opacity:1;" offset="1.0" id="stopFFB6B6" /></linearGradient><linearGradient xmlns:xlink="http://www.w3.org/1999/xlink" xlink:href="#linearGradientFAFBFCFFFFCC" id="linearGradientFAFBFCFFFFCC_1397864454" x1="0" y1="60.0" x2="0" y2="120.0" gradientUnits="userSpaceOnUse" xlink:type="simple" xlink:actuate="onLoad" xlink:show="other" /><linearGradient id="linearGradientFAFBFCFFFFCC"><stop style="stop-color:#FAFBFC;stop-opacity:1;" offset="0.0" id="stopFAFBFC" /><stop style="stop-color:#FFFFCC;stop-opacity:1;" offset="1.0" id="stopFFFFCC" /></linearGradient><linearGradient xmlns:xlink="http://www.w3.org/1999/xlink" xlink:href="#linearGradientFFFF66FFFF96FFFFB6" id="linearGradientFFFF66FFFF96FFFFB6_1596815948" x1="0" y1="102.0" x2="0" y2="137.0" gradientUnits="userSpaceOnUse" xlink:type="simple" xlink:actuate="onLoad" xlink:show="other" /><linearGradient xmlns:xlink="http://www.w3.org/1999/xlink" xlink:href="#linearGradientF8FBFEEDF5FCDEEDFAD4E7F8E2E5E9" id="linearGradientF8FBFEEDF5FCDEEDFAD4E7F8E2E5E9_723512902" x1="0" y1="308.0" x2="0" y2="414.0" gradientUnits="userSpaceOnUse" xlink:type="simple" xlink:actuate="onLoad" xlink:show="other" /><linearGradient xmlns:xlink="http://www.w3.org/1999/xlink" xlink:href="#linearGradientFFFF66FFFF96FFFFB6" id="linearGradientFFFF66FFFF96FFFFB6_245796332" x1="0" y1="318.0" x2="0" y2="353.0" gradientUnits="userSpaceOnUse" xlink:type="simple" xlink:actuate="onLoad" xlink:show="other" /><linearGradient xmlns:xlink="http://www.w3.org/1999/xlink" xlink:href="#linearGradientFF6666FF9696FFB6B6" id="linearGradientFF6666FF9696FFB6B6_1357485494" x1="0" y1="237.0" x2="0" y2="272.0" gradientUnits="userSpaceOnUse" xlink:type="simple" xlink:actuate="onLoad" xlink:show="other" /><linearGradient xmlns:xlink="http://www.w3.org/1999/xlink" xlink:href="#linearGradientFAFBFCFFFFCC" id="linearGradientFAFBFCFFFFCC_1679977213" x1="0" y1="285.0" x2="0" y2="345.0" gradientUnits="userSpaceOnUse" xlink:type="simple" xlink:actuate="onLoad" xlink:show="other" /><linearGradient xmlns:xlink="http://www.w3.org/1999/xlink" xlink:href="#linearGradientFFFF66FFFF96FFFFB6" id="linearGradientFFFF66FFFF96FFFFB6_807126497" x1="0" y1="318.0" x2="0" y2="353.0" gradientUnits="userSpaceOnUse" xlink:type="simple" xlink:actuate="onLoad" xlink:show="other" /><linearGradient xmlns:xlink="http://www.w3.org/1999/xlink" xlink:href="#linearGradientFFFF66FFFF96FFFFB6" id="linearGradientFFFF66FFFF96FFFFB6_183039971" x1="0" y1="110.0" x2="0" y2="145.0" gradientUnits="userSpaceOnUse" xlink:type="simple" xlink:actuate="onLoad" xlink:show="other" /><linearGradient xmlns:xlink="http://www.w3.org/1999/xlink" xlink:href="#linearGradientFF6666FF9696FFB6B6" id="linearGradientFF6666FF9696FFB6B6_372279085" x1="0" y1="397.0" x2="0" y2="432.0" gradientUnits="userSpaceOnUse" xlink:type="simple" xlink:actuate="onLoad" xlink:show="other" /></defs></svg>
